<svg width="24" height="24" viewBox="0 0 24 24" fill="none" xmlns="http://www.w3.org/2000/svg">
<path d="M22.68 -0.000610352H1.32C0.969914 -0.000610352 0.634167 0.138461 0.386619 0.386009C0.139071 0.633557 0 0.969304 0 1.31939V22.6794C0 23.0295 0.139071 23.3652 0.386619 23.6128C0.634167 23.8603 0.969914 23.9994 1.32 23.9994H12.816V14.6994H9.696V11.0994H12.816V8.39939C12.7514 7.7655 12.8262 7.12514 13.0353 6.52323C13.2443 5.92133 13.5825 5.37244 14.0262 4.91508C14.4698 4.45772 15.0081 4.10296 15.6034 3.87568C16.1987 3.64839 16.8364 3.55409 17.472 3.59939C18.406 3.59294 19.3396 3.64102 20.268 3.74339V6.98339H18.36C16.848 6.98339 16.56 7.70339 16.56 8.74739V11.0634H20.16L19.692 14.6634H16.56V23.9994H22.68C22.8533 23.9994 23.025 23.9652 23.1851 23.8989C23.3453 23.8326 23.4908 23.7353 23.6134 23.6128C23.736 23.4902 23.8332 23.3447 23.8995 23.1845C23.9659 23.0244 24 22.8527 24 22.6794V1.31939C24 1.14604 23.9659 0.974397 23.8995 0.814248C23.8332 0.654098 23.736 0.508582 23.6134 0.386009C23.4908 0.263436 23.3453 0.166205 23.1851 0.0998688C23.025 0.0335326 22.8533 -0.000610352 22.68 -0.000610352Z" fill="white"/>
</svg>
