<svg width="24" height="24" viewBox="0 0 24 24" fill="none" xmlns="http://www.w3.org/2000/svg">
<path d="M13.2336 0C14.5835 0.00359982 15.2687 0.0107995 15.8603 0.0275986L16.0931 0.0359982C16.3619 0.0455977 16.627 0.057597 16.9474 0.0719963C18.2242 0.131993 19.0953 0.333583 19.8597 0.629968C20.6516 0.934753 21.3188 1.34753 21.986 2.0135C22.5964 2.61315 23.0685 3.3388 23.3695 4.13979C23.6659 4.90415 23.8675 5.77531 23.9275 7.05324C23.9419 7.37243 23.9539 7.63762 23.9635 7.9076L23.9707 8.14039C23.9887 8.73076 23.9959 9.41593 23.9983 10.7659L23.9995 11.661V13.2329C24.0024 14.1082 23.9932 14.9834 23.9719 15.8584L23.9647 16.0912C23.9551 16.3612 23.9431 16.6264 23.9287 16.9455C23.8687 18.2235 23.6647 19.0934 23.3695 19.859C23.0685 20.66 22.5964 21.3856 21.986 21.9853C21.3863 22.5957 20.6607 23.0679 19.8597 23.3688C19.0953 23.6652 18.2242 23.8668 16.9474 23.9268L16.0931 23.9628L15.8603 23.97C15.2687 23.9868 14.5835 23.9952 13.2336 23.9976L12.3385 23.9988H10.7677C9.8921 24.0019 9.01646 23.9927 8.14107 23.9712L7.90828 23.964C7.62343 23.9532 7.33864 23.9408 7.05393 23.9268C5.77719 23.8668 4.90603 23.6652 4.14047 23.3688C3.33991 23.0677 2.61468 22.5955 2.01538 21.9853C1.40455 21.3858 0.931966 20.6601 0.630651 19.859C0.334266 19.0946 0.132676 18.2235 0.0726788 16.9455L0.0366807 16.0912L0.0306811 15.8584C0.00856149 14.9834 -0.00143908 14.1082 0.000682522 13.2329V10.7659C-0.00263878 9.89062 0.00616171 9.01538 0.0270813 8.14039L0.0354808 7.9076C0.0450803 7.63762 0.0570797 7.37243 0.071479 7.05324C0.131476 5.77531 0.333066 4.90535 0.629451 4.13979C0.931469 3.33847 1.40488 2.61279 2.01658 2.0135C2.61553 1.40339 3.34034 0.931241 4.14047 0.629968C4.90603 0.333583 5.77599 0.131993 7.05393 0.0719963C7.37311 0.057597 7.6395 0.0455977 7.90828 0.0359982L8.14107 0.0287985C9.01606 0.00747887 9.8913 -0.00172155 10.7665 0.00119985L13.2336 0ZM12.0001 5.9997C10.4089 5.9997 8.88281 6.63181 7.75765 7.75697C6.63249 8.88213 6.00038 10.4082 6.00038 11.9994C6.00038 13.5906 6.63249 15.1167 7.75765 16.2418C8.88281 17.367 10.4089 17.9991 12.0001 17.9991C13.5913 17.9991 15.1173 17.367 16.2425 16.2418C17.3677 15.1167 17.9998 13.5906 17.9998 11.9994C17.9998 10.4082 17.3677 8.88213 16.2425 7.75697C15.1173 6.63181 13.5913 5.9997 12.0001 5.9997ZM12.0001 8.39958C12.4728 8.3995 12.9409 8.49253 13.3777 8.67337C13.8145 8.8542 14.2114 9.1193 14.5457 9.45352C14.88 9.78773 15.1453 10.1845 15.3262 10.6213C15.5072 11.058 15.6004 11.5261 15.6005 11.9988C15.6006 12.4715 15.5075 12.9397 15.3267 13.3764C15.1459 13.8132 14.8808 14.2101 14.5466 14.5444C14.2123 14.8788 13.8155 15.144 13.3788 15.325C12.9421 15.5059 12.474 15.5991 12.0013 15.5992C11.0465 15.5992 10.1309 15.2199 9.45582 14.5449C8.78072 13.8698 8.40146 12.9541 8.40146 11.9994C8.40146 11.0447 8.78072 10.129 9.45582 9.45394C10.1309 8.77884 11.0465 8.39958 12.0013 8.39958M18.301 4.19979C17.9032 4.19979 17.5216 4.35782 17.2404 4.63911C16.9591 4.9204 16.801 5.30191 16.801 5.69971C16.801 6.09752 16.9591 6.47903 17.2404 6.76032C17.5216 7.04161 17.9032 7.19964 18.301 7.19964C18.6988 7.19964 19.0803 7.04161 19.3616 6.76032C19.6429 6.47903 19.8009 6.09752 19.8009 5.69971C19.8009 5.30191 19.6429 4.9204 19.3616 4.63911C19.0803 4.35782 18.6988 4.19979 18.301 4.19979Z" fill="white"/>
</svg>
